/* XPM */
static char *a895fc514e7845b28423922350672781p0tgd9ebocYoaffw[] = {
/* columns rows colors chars-per-pixel */
"64 64 8 1 ",
"  c #0D0712",
". c #542A23",
"X c #633B2A",
"o c #663931",
"O c #187454",
"+ c #197E52",
"@ c #B17255",
"# c #24875C",
/* pixels */
"+++OO+OO#OOOOOO++++OO+OO#OOOOOO++++OO+OO#OOOOOO++++OO+OO#OOOOOO+",
"+O++OOOO+O+OO+O++O++OOOO+O+OO+O++O++OOOO+O+OO+O++O++OOOO+O+OO+O+",
"+OO+++OO+++O++OO+OO+++OO+++O++OO+OO+++OO+++O++OO+OO+++OO+++O++OO",
"#OO#+#+OO+OO#OOO#OO#+#+OO+OO#OOO#OO#+#+OO+OO#OOO#OO#+#+OO+OO#OOO",
"++O#OO+OOOOO#O+O++O#OO+OOOOO#O+O++O#OO+OOOOO#O+O++O#OO+OOOOO#O+O",
"OO+++O+O##+O#O++OO+++O+O##+O#O++OO+++O+O##+O#O++OO+++O+O##+O#O++",
"OO+OOOOO#+OO+#+OOO+OOOOO#+OO+#+OOO+OOOOO#+OO+#+OOO+OOOOO#+OO+#+O",
"OOOO#OO+#OOO++OOOOOO#OO+#OOO++OOOOOO#OO+#OOO++OOOOOO#OO+#OOO++OO",
"OOOO#OO++O+O+OOOOOOO#OO++O+O+OOOOOOO#OO++O+O+OOOOOOO#OO++O+O+OOO",
"#+OO+OO+O#O+O+O+#+OO+OO+O#O+O+O+#+OO+OO+O#O+O+O+#+OO+OO+O#O+O+O+",
"#+OO+OOO##OOOOO+#+OO+OOO##OOOOO+#+OO+OOO##OOOOO+#+OO+OOO##OOOOO+",
"+++OOOO++OO++++++++OOOO++OO++++++++OOOO++OO++++++++OOOO++OO+++++",
"OO#+OOO+OOOOOO++OO#+OOO+OOOOOO++OO#+OOO+OOOOOO++OO#+OOO+OOOOOO++",
"OO#+OO+OOOOOOOO+OO#+OO+OOOOOOOO+OO#+OO+OOOOOOOO+OO#+OO+OOOOOOOO+",
"+O+++O+OO+O+O++O+O+++O+OO+O+O++O+O+++O+OO+O+O++O+O+++O+OO+O+O++O",
"++++#OO+#+++O+++++++#OO+#+++O+++++++#OO+#+++O+++++++#OO+#+++O+++",
"+++OO+OO#OOOOOO++++OO+OO#OOOOOO++++OO+OO#OOOOOO++++OO+OO#OOOOOO+",
"+O++OOOO+O+OO+O++O++OOOO+O+OO+O++O++OOOO+O+OO+O++O++OOOO+O+OO+O+",
"+OO+++OO+++O++OO+OO+++OO+++O++OO+OO+++OO+++O++OO+OO+++OO+++O++OO",
"#OO#+#+OO+OO#OOO#OO#+#+OO+OO#OOO#OO#+#+OO+OO#OOO#OO#+#+OO+OO#OOO",
"++O#OO+OOOOO#O+O++O#OO+OOOOO#O+O++O#OO+OOOOO#O+O++O#OO+OOOOO#O+O",
"OO+++O+O##+O#O++OO+++O+O##+O#O++OO+++O+ ##+O#O++OO+++O+O##+O#O++",
"OO+OOOOO#+OO+#+OOO+OOOOO#+OO+#+OOO+OOO @ +OO+#+OOO+OOOOO#+OO+#+O",
"OOOO#OO+#OOO++OOOOOO#OO+#OOO++OOOOOO#O X OOO++OOOOOO#OO+#OOO++OO",
"OOOO#OO++O+O+OOOOOOO#OO++O+O+OOOOOOO  @XX  O+OOOOOOO#OO++O+O+OOO",
"#+OO+OO+O#O+O+O+#+OO+OO+O#  O+O+#+O @XXXo.o O+O+#+OO+OO+O#O+O+O+",
"#+OO+OOO##OOOOO+#+OO+OOO## @ OO+#  XXo     . OO+#+OO+OOO##OOOOO+",
"+++OOOO++OO++++++++OOOO++O X ++  @Xo  O++OO  ++++++OOOO++OO+++++",
"OO#+OOO+OOOOOO++OO#+OOO+OO o O @Xo  OOO+OOOOOO++OO#+OOO+OOOOOO++",
"OO#+OO+OOOOOOOO+OO#+OO+OOO o. @Xo #+O  OOOOOOOO+OO#+OO+OOOOOOOO+",
"+O+++O+OO+O+O++O+O+++O+OO+O .@X.@X   @@ O+O+O++O+O+++O+OO+O+O++O",
"++++#OO+#+++O+++++++#OO+#++ @X. ..X@X  +#+++O+++++++#OO+#+++O+++",
"+++OO+OO#OOOOOO++++OO+OO#O @X. +  .o +OO#OOOOOO++++OO+OO#OOOOOO+",
"+O++OOOO+O+OO+O++O++OOOO+ @Xo O++O  @ OO+O+OO+O++O++OOOO+O+OO+O+",
"+OO+++OO+++O++OO+OO+++OO @X. +OO+OO+ @ O+++O++OO+OO+++OO+++O++OO",
"#OO#+#+OO+OO#OOO#OO#+#+ @X. #OOO#OO# X OO+OO#OOO#OO#+#+OO+OO#OOO",
"++O#OO+OOOOO#O+O++O#OO @Xo O#O+O++O#O +OOOOO#O+O++O#OO+OOOOO#O+O",
"OO+++O+O##+O#O++OO+++O Xo +O#O++OO+++O+O##+O#O++OO+++O+O##+O#O++",
"OO+OOOOO#+OO+#+OOO+OO XX. OO+#+OOO+OOOOO#+OO+#+OOO+OOOOO#+OO+#+O",
"OOOO#OO+#OOO++OOOOOO# Xo OOO++OOOOOO#OO+#OOO++OOOOOO#OO+#OOO++OO",
"OOOO#OO++O+O+OOOOOOO XX. O+O+OOOOOOO#OO++O+O+OOOOOOO#OO++O+O+OOO",
"#+OO+OO+O#O+O+O+#+OO Xo. #O+O+O+#+OO+OO+O#O+O+O+#+OO+OO+O#O+O+O+",
"#+OO+OOO##OOOOO+#+OO+   ##OOOOO+#+OO+OOO##OOOOO+#+OO+OOO##OOOOO+",
"+++OOOO++OO++++++++OOOO++OO++++++++OOOO++OO++++++++OOOO++OO+++++",
"OO#+OOO+OOOOOO++OO#+OOO+OOOOOO++OO#+OOO+OOOOOO++OO#+OOO+OOOOOO++",
"OO#+OO+OOOOOOOO+OO#+OO+OOOOOOOO+OO#+OO+OOOOOOOO+OO#+OO+OOOOOOOO+",
"+O+++O+OO+O+O++O+O+++O+OO+O+O++O+O+++O+OO+O+O++O+O+++O+OO+O+O++O",
"++++#OO+#+++O+++++++#OO+#+++O+++++++#OO+#+++O+++++++#OO+#+++O+++",
"+++OO+OO#OOOOOO++++OO+OO#OOOOOO++++OO+OO#OOOOOO++++OO+OO#OOOOOO+",
"+O++OOOO+O+OO+O++O++OOOO+O+OO+O++O++OOOO+O+OO+O++O++OOOO+O+OO+O+",
"+OO+++OO+++O++OO+OO+++OO+++O++OO+OO+++OO+++O++OO+OO+++OO+++O++OO",
"#OO#+#+OO+OO#OOO#OO#+#+OO+OO#OOO#OO#+#+OO+OO#OOO#OO#+#+OO+OO#OOO",
"++O#OO+OOOOO#O+O++O#OO+OOOOO#O+O++O#OO+OOOOO#O+O++O#OO+OOOOO#O+O",
"OO+++O+O##+O#O++OO+++O+O##+O#O++OO+++O+O##+O#O++OO+++O+O##+O#O++",
"OO+OOOOO#+OO+#+OOO+OOOOO#+OO+#+OOO+OOOOO#+OO+#+OOO+OOOOO#+OO+#+O",
"OOOO#OO+#OOO++OOOOOO#OO+#OOO++OOOOOO#OO+#OOO++OOOOOO#OO+#OOO++OO",
"OOOO#OO++O+O+OOOOOOO#OO++O+O+OOOOOOO#OO++O+O+OOOOOOO#OO++O+O+OOO",
"#+OO+OO+O#O+O+O+#+OO+OO+O#O+O+O+#+OO+OO+O#O+O+O+#+OO+OO+O#O+O+O+",
"#+OO+OOO##OOOOO+#+OO+OOO##OOOOO+#+OO+OOO##OOOOO+#+OO+OOO##OOOOO+",
"+++OOOO++OO++++++++OOOO++OO++++++++OOOO++OO++++++++OOOO++OO+++++",
"OO#+OOO+OOOOOO++OO#+OOO+OOOOOO++OO#+OOO+OOOOOO++OO#+OOO+OOOOOO++",
"OO#+OO+OOOOOOOO+OO#+OO+OOOOOOOO+OO#+OO+OOOOOOOO+OO#+OO+OOOOOOOO+",
"+O+++O+OO+O+O++O+O+++O+OO+O+O++O+O+++O+OO+O+O++O+O+++O+OO+O+O++O",
"++++#OO+#+++O+++++++#OO+#+++O+++++++#OO+#+++O+++++++#OO+#+++O+++"
};
