/* XPM */
static char *c9ed67d4df31443295bec4a80415ce14TI7ju3M72HWje8pA[] = {
/* columns rows colors chars-per-pixel */
"64 64 16 1 ",
"  c #2E1E22",
". c #187454",
"X c #197E52",
"o c #424040",
"O c gray42",
"+ c #24875C",
"@ c #64648B",
"# c #928A8C",
"$ c #A0A0A0",
"% c gray71",
"& c #CBCBCB",
"* c #D9D9DD",
"= c #C3D5EF",
"- c #E9E9E9",
"; c #E6F7FF",
": c white",
/* pixels */
"XXX..X..+......XXXX..X..+......XXXX..X..+......XXXX..X..+......X",
"X.XX....X.X..X.XX.XX....X.X..X.XX.XX....X.X..X.XX.XX....X.X..X.X",
"X..XXX..XXX.XX..X..XXX..XXX.XX..X..XXX..XXX.XX..X..XXX..XXX.XX..",
"+..+X+X..X..+...+..+X+X..X..+...+..+X+X..X..+...+..+X+X..X..+...",
"XX.+..X.....+.X.XX.+..X.....+.X.XX.+..X.....+.X.XX.+..X.....+.X.",
"..XXX.X.++X.+.XX..XXX.X.++X.+.XX..XXX.X.++X.+.XX..XXX.X.++X.+.XX",
"..X.....+X..X+X...X.....+X..X+X...X.....+X..X+X...X.....+X..X+X.",
"....+..X+...XX......+..X+...XX......+..X+...XX......+..X+...XX..",
"....+..XX.X.X.......+..XX.X.X.......+..XX.X.X.......+..XX.X.X...",
"+X..X..X.+.X.X.X+X..X..X.+.X.X.X+X..X..X.+.X.X.X+X..X..X.+.X.X.X",
"+X..X...++.....X+X..X...++.....X+X..X...++.....X+X..X...++.....X",
"XXX....XX..XXXXXXXX....XX..XXXXXXXX....XX..XXXXXXXX....XX..XXXXX",
"..+X...X......XX..+X...X......XX..+X...X......XX..+X...X......XX",
"..+X..X........X..+X..X........X..+X..X........X..+X..X........X",
"X.XXX.X..X.X.XX.X.XXX.X..X.X.XX.X.XXX.X..X.X.XX.X.XXX.X..X.X.XX.",
"XXXX+..X+XXX.XXXXXXX+..X+XXX.XXXXXXX+..X+XXX.XXXXXXX+..X+XXX.XXX",
"XXX..X..+......XXXX..X..+......XXXX..X..+......XXXX..X..+......X",
"X.XX....X.X..X.XX.XX....X.X..X.XX.XX....X.X..X.XX.XX....X.X..X.X",
"X..XXX..XXX.XX..X..XXX..XXX.XX..X..XXX..XXX.XX..X..XXX..XXX.XX..",
"+..+X+X..X..+...+..+X+X..X..+...+..+X+X..X..+...+..+X+X..X..+...",
"XX.+..X.....+.X.XX.+..X.....+.X.XX.+O.X.....+.X.XX.+..X.....+.X.",
"..XXX.X.++X.+.XX..XXX.X.++X.+.XX..XO$OX.++X.+.XX..XXX.X.++X.+.XX",
"..X.....+X..X+X...X.....+X..X+X...O$&$O.+X..X+X...X.....+X..X+X.",
"....+..X+...XX......OOOX+...XX....O$:&OO+...XX......+..X+...XX..",
"....+..XX.X.X......O-&%OX.X.X....O$:::O$OOX.X.......+..XX.X.X...",
"+X..X..X.+.X.X.X+XO-&$OX.+.X.X.X+O%::&%%%$OX.X.X+X..X..X.+.X.X.X",
"+X..X...++.....X+O-:&O..++.....XO$%:%&&&&%$O...X+X..X...++.....X",
"XXX....XX..XXXXXXO-:&O.XX..XXXXXO%%%&&&&&&%$OXXXXXX....XX..XXXXX",
"..+X...X......XX.O-:&O.X......XO$%&&&&&&&&&%O.XX..+X...X......XX",
"..+X..X........X..O:%$O..OOOOOO$%%&&&&%ooo%%O..X..+X..X........X",
"X.XXX.X..X.X.XX.X.O-%%$OO$$%%%%%%%&&&&$= *$%$OX.X.XXX.X..X.X.XX.",
"XXXX+..X+XXX.XXXXXXO-%O$%&&&&&&&&%&&&&%; #$&%$OXXXXX+..X+XXX.XXX",
"XXX..X..+......XXXX.OO$%&&&&&&&&&&&&&&&%@@%&O OXXXX..X..+......X",
"X.XX....X.X..X.XX.XXO$%&&&&&&&&&&&&%&&&&&&&::-OXX.XX....X.X..X.X",
"X..XXX..XXX.XX..X..XO$%&&&&&%&&&&&&%%%&&&:::-O..X..XXX..XXX.XX..",
"+..+X+X..X..+...+..+O$%&&&&&$%&&&&&%$---::-OO...+..+X+X..X..+...",
"XX.+..X.....+.X.XX.+O$%&&&&%$-::-&&%$OOOOOO.+.X.XX.+..X.....+.X.",
"..XXX.X.++X.+.XX..XXXO$%&%$O----O&&%O.X.++X.+.XX..XXX.X.++X.+.XX",
"..X.....+X..X+X...X..O$%%$OOOOOOO%&&O...+X..X+X...X.....+X..X+X.",
"....+..X+...XX......+O$&&$O.XX..O%&&O..X+...XX......+..X+...XX..",
"....+..XX.X.X.......+.O&&%O.X...O$&&%O.XX.X.X.......+..XX.X.X...",
"+X..X..X.+.X.X.X+X..X.O%&&OX.X.X+O%&&O.X.+.X.X.X+X..X..X.+.X.X.X",
"+X..X...++.....X+X..X..OOO.....X+XOOO...++.....X+X..X...++.....X",
"XXX....XX..XXXXXXXX....XX..XXXXXXXX....XX..XXXXXXXX....XX..XXXXX",
"..+X...X......XX..+X...X......XX..+X...X......XX..+X...X......XX",
"..+X..X........X..+X..X........X..+X..X........X..+X..X........X",
"X.XXX.X..X.X.XX.X.XXX.X..X.X.XX.X.XXX.X..X.X.XX.X.XXX.X..X.X.XX.",
"XXXX+..X+XXX.XXXXXXX+..X+XXX.XXXXXXX+..X+XXX.XXXXXXX+..X+XXX.XXX",
"XXX..X..+......XXXX..X..+......XXXX..X..+......XXXX..X..+......X",
"X.XX....X.X..X.XX.XX....X.X..X.XX.XX....X.X..X.XX.XX....X.X..X.X",
"X..XXX..XXX.XX..X..XXX..XXX.XX..X..XXX..XXX.XX..X..XXX..XXX.XX..",
"+..+X+X..X..+...+..+X+X..X..+...+..+X+X..X..+...+..+X+X..X..+...",
"XX.+..X.....+.X.XX.+..X.....+.X.XX.+..X.....+.X.XX.+..X.....+.X.",
"..XXX.X.++X.+.XX..XXX.X.++X.+.XX..XXX.X.++X.+.XX..XXX.X.++X.+.XX",
"..X.....+X..X+X...X.....+X..X+X...X.....+X..X+X...X.....+X..X+X.",
"....+..X+...XX......+..X+...XX......+..X+...XX......+..X+...XX..",
"....+..XX.X.X.......+..XX.X.X.......+..XX.X.X.......+..XX.X.X...",
"+X..X..X.+.X.X.X+X..X..X.+.X.X.X+X..X..X.+.X.X.X+X..X..X.+.X.X.X",
"+X..X...++.....X+X..X...++.....X+X..X...++.....X+X..X...++.....X",
"XXX....XX..XXXXXXXX....XX..XXXXXXXX....XX..XXXXXXXX....XX..XXXXX",
"..+X...X......XX..+X...X......XX..+X...X......XX..+X...X......XX",
"..+X..X........X..+X..X........X..+X..X........X..+X..X........X",
"X.XXX.X..X.X.XX.X.XXX.X..X.X.XX.X.XXX.X..X.X.XX.X.XXX.X..X.X.XX.",
"XXXX+..X+XXX.XXXXXXX+..X+XXX.XXXXXXX+..X+XXX.XXXXXXX+..X+XXX.XXX"
};
