/* XPM */
static char *_2c9c6e54b064f40ecebc120a4f96a62hM3nwUo7XLdU96qv[] = {
/* columns rows colors chars-per-pixel */
"64 64 16 1 ",
"  c #2E1E22",
". c #187454",
"X c #197E52",
"o c #424040",
"O c gray42",
"+ c #24875C",
"@ c #64648B",
"# c #928A8C",
"$ c #A0A0A0",
"% c gray71",
"& c #CBCBCB",
"* c #D9D9DD",
"= c #C3D5EF",
"- c #E9E9E9",
"; c #E6F7FF",
": c white",
/* pixels */
"XXX..X..+......XXXX..X..+......XXXX..X..+......XXXX..X..+......X",
"X.XX....X.X..X.XX.XX....X.X..X.XX.XX....X.X..X.XX.XX....X.X..X.X",
"X..XXX..XXX.XX..X..XXX..XXX.XX..X..XXX..XXX.XX..X..XXX..XXX.XX..",
"+..+X+X..X..+...+..+X+X..X..+...+..+X+X..X..+...+..+X+X..X..+...",
"XX.+..X.....+.X.XX.+..X.....+.X.XX.+..X.....+.X.XX.+..X.....+.X.",
"..XXX.X.++X.+.XX..XXX.X.++X.+.XX..XXX.X.++X.+.XX..XXX.X.++X.+.XX",
"..X.....+X..X+X...X.....+X..X+X...X.....+X..X+X...X.....+X..X+X.",
"....+..X+...XX......+..X+...XX......+..X+...XX......+..X+...XX..",
"....+..XX.X.X.......+..XX.X.X.......+..XX.X.X.......+..XX.X.X...",
"+X..X..X.+.X.X.X+X..X..X.+.X.X.X+X..X..X.+.X.X.X+X..X..X.+.X.X.X",
"+X..X...++.....X+X..X...++.....X+X..X...++.....X+X..X...++.....X",
"XXX....XX..XXXXXXXX....XX..XXXXXXXX....XX..XXXXXXXX....XX..XXXXX",
"..+X...X......XX..+X...X......XX..+X...X......XX..+X...X......XX",
"..+X..X........X..+X..X........X..+X..X........X..+X..X........X",
"X.XXX.X..X.X.XX.X.XXX.X..X.X.XX.X.XXX.X..X.X.XX.X.XXX.X..X.X.XX.",
"XXXX+..X+XXX.XXXXXXX+..X+XXX.XXXXXXX+..X+XXX.XXXXXXX+..X+XXX.XXX",
"XXX..X..+......XXXX..X..+......XXXX..X..+......XXXX..X..+......X",
"X.XX....X.X..X.XX.XX....X.X.OOOXX.XX....X.X..X.XX.XX....X.X..X.X",
"X..XXX..XXX.XX..X..XXX..XXXO%&%OO..XXX..XXX.XX..X..XXX..XXX.XX..",
"+..+X+X..X..+...+..+X+X..X..O%&&-O.+X+X..X..+...+..+X+X..X..+...",
"XX.+..X.....+.X.XX.+..X.....+O%&:-O+..X.....+.X.XX.+..X.....+.X.",
"..XXX.X.++X.+.XX..XXX.X.++X.+.O&&:OXX.X.++X.+.XX..XXX.X.++X.+.XX",
"..X.....+X..X+X...X.....+X..X+O%&:O.....+X..X+X...X.....+X..X+X.",
"....+..X+...XX......+..X+...XXO$%-O.+..X+...XX......+..X+...XX..",
"....+..XX.X.X.......+..XX.X.XOOOOO..+..XX.X.X.......+..XX.X.X...",
"+X..X..X.+.X.X.X+X..X..X.+.OO$%%%$OOX..X.+.X.X.X+X..X..X.+.X.X.X",
"+X..X...++.....X+X..X...++O$%%&&&%%$O...++.....X+X..X...++.....X",
"XXX....XX..XXXXXXXX....XXO$O%&&&&&%O$O.XX..XXXXXXXX....XX..XXXXX",
"..+X...X......XX..+X...X.O&$O%%%%%O$&O.X......XX..+X...X......XX",
"..+X..X........X..+X..X..O:&$OOOOO$&:OX........X..+X..X........X",
"X.XXX.X..X.X.XX.X.XXX.X.O$::%O$$$O%::$O..X.X.XX.X.XXX.X..X.X.XX.",
"XXXX+..X+XXX.XXXXXXX+..XO$:%&%%%%%&%:$OX+XXX.XXXXXXX+..X+XXX.XXX",
"XXX..X..+......XXXX..X..O$%&&&&&&&&&%$O.+......XXXX..X..+......X",
"X.XX....X.X..X.XX.XX...O$%%%&&&&&&&%%%$OX.X..X.XX.XX....X.X..X.X",
"X..XXX..XXX.XX..X..XXX.O$$ooo%&&&%ooo$$OXXX.XX..X..XXX..XXX.XX..",
"+..+X+X..X..+...+..+X+XO$%= *$%%%$* =%$O.X..+...+..+X+X..X..+...",
"XX.+..X.....+.X.XX.+..XO$%; #$%%%$# ;%$O....+.X.XX.+..X.....+.X.",
"..XXX.X.++X.+.XX..XXX.X.O$%@@%&&&%@@%$O.++X.+.XX..XXX.X.++X.+.XX",
"..X.....+X..X+X...X.....OO-%%&&&&&%%-OO.+X..X+X...X.....+X..X+X.",
"....+..X+...XX......+..XO$O-::O O::-O$OX+...XX......+..X+...XX..",
"....+..XX.X.X.......+..XO$$O-::-::-O%$OXX.X.X.......+..XX.X.X...",
"+X..X..X.+.X.X.X+X..X..X.O%$OO---OO%&$OX.+.X.X.X+X..X..X.+.X.X.X",
"+X..X...++.....X+X..X...+O$%$OOOOO%&&O..++.....X+X..X...++.....X",
"XXX....XX..XXXXXXXX....XX.O$$$OXO$&&%O.XX..XXXXXXXX....XX..XXXXX",
"..+X...X......XX..+X...X...OOOXXO%&&$..X......XX..+X...X......XX",
"..+X..X........X..+X..X........XO&&%O.X........X..+X..X........X",
"X.XXX.X..X.X.XX.X.XXX.X..X.X.XX.X.XXX.X..X.X.XX.X.XXX.X..X.X.XX.",
"XXXX+..X+XXX.XXXXXXX+..X+XXX.XXXXXXX+..X+XXX.XXXXXXX+..X+XXX.XXX",
"XXX..X..+......XXXX..X..+......XXXX..X..+......XXXX..X..+......X",
"X.XX....X.X..X.XX.XX....X.X..X.XX.XX....X.X..X.XX.XX....X.X..X.X",
"X..XXX..XXX.XX..X..XXX..XXX.XX..X..XXX..XXX.XX..X..XXX..XXX.XX..",
"+..+X+X..X..+...+..+X+X..X..+...+..+X+X..X..+...+..+X+X..X..+...",
"XX.+..X.....+.X.XX.+..X.....+.X.XX.+..X.....+.X.XX.+..X.....+.X.",
"..XXX.X.++X.+.XX..XXX.X.++X.+.XX..XXX.X.++X.+.XX..XXX.X.++X.+.XX",
"..X.....+X..X+X...X.....+X..X+X...X.....+X..X+X...X.....+X..X+X.",
"....+..X+...XX......+..X+...XX......+..X+...XX......+..X+...XX..",
"....+..XX.X.X.......+..XX.X.X.......+..XX.X.X.......+..XX.X.X...",
"+X..X..X.+.X.X.X+X..X..X.+.X.X.X+X..X..X.+.X.X.X+X..X..X.+.X.X.X",
"+X..X...++.....X+X..X...++.....X+X..X...++.....X+X..X...++.....X",
"XXX....XX..XXXXXXXX....XX..XXXXXXXX....XX..XXXXXXXX....XX..XXXXX",
"..+X...X......XX..+X...X......XX..+X...X......XX..+X...X......XX",
"..+X..X........X..+X..X........X..+X..X........X..+X..X........X",
"X.XXX.X..X.X.XX.X.XXX.X..X.X.XX.X.XXX.X..X.X.XX.X.XXX.X..X.X.XX.",
"XXXX+..X+XXX.XXXXXXX+..X+XXX.XXXXXXX+..X+XXX.XXXXXXX+..X+XXX.XXX"
};
