/* XPM */
static char *c39adfe758f24669b3e61718059e6c5aNywo2gdiTnX1uzYP[] = {
/* columns rows colors chars-per-pixel */
"64 64 16 1 ",
"  c #2E1E22",
". c #187454",
"X c #197E52",
"o c #424040",
"O c gray42",
"+ c #24875C",
"@ c #64648B",
"# c #928A8C",
"$ c #A0A0A0",
"% c gray71",
"& c #CBCBCB",
"* c #D9D9DD",
"= c #C3D5EF",
"- c #E9E9E9",
"; c #E6F7FF",
": c white",
/* pixels */
"XXX..X..+......XXXX..X..+......XXXX..X..+......XXXX..X..+......X",
"X.XX....X.X..X.XX.XX....X.X..X.XX.XX....X.X..X.XX.XX....X.X..X.X",
"X..XXX..XXX.XX..X..XXX..XXX.XX..X..XXX..XXX.XX..X..XXX..XXX.XX..",
"+..+X+X..X..+...+..+X+X..X..+...+..+X+X..X..+...+..+X+X..X..+...",
"XX.+..X.....+.X.XX.+..X.....+.X.XX.+..X.....+.X.XX.+..X.....+.X.",
"..XXX.X.++X.+.XX..XXX.X.++X.+.XX..XXX.X.++X.+.XX..XXX.X.++X.+.XX",
"..X.....+X..X+X...X.....+X..X+X...X.....+X..X+X...X.....+X..X+X.",
"....+..X+...XX......+..X+...XX......+..X+...XX......+..X+...XX..",
"....+..XX.X.X.......+..XX.X.X.......+..XX.X.X.......+..XX.X.X...",
"+X..X..X.+.X.X.X+X..X..X.+.X.X.X+X..X..X.+.X.X.X+X..X..X.+.X.X.X",
"+X..X...++.....X+X..X...++.....X+X..X...++.....X+X..X...++.....X",
"XXX....XX..XXXXXXXX....XX..XXXXXXXX....XX..XXXXXXXX....XX..XXXXX",
"..+X...X......XX..+X...X......XX..+X...X......XX..+X...X......XX",
"..+X..X........X..+X..X........X..+X..X........X..+X..X........X",
"X.XXX.X..X.X.XX.X.XXX.X..X.X.XX.X.XXX.X..X.X.XX.X.XXX.X..X.X.XX.",
"XXXX+..X+XXX.XXXXXXX+..X+XXX.XXXXXXX+..X+XXX.XXXXXXX+..X+XXX.XXX",
"XXX..X..+......XXXX..X..+......XXXX..X..+......XXXX..X..+......X",
"X.XX....X.X..X.XX.XX....X.X..X.XX.XX....X.X..X.XX.XX....X.X..X.X",
"X..XXX..XXX.XX..X..XXX..XXX.XX..X..XXX..XXX.XX..X..XXX..XXX.XX..",
"+..+X+X..X..+...+..+X+X..X..+...+..+X+X..X..+...+..+X+X..X..+...",
"XX.+..X.....+.X.XX.+..X.....+.X.XX.+..X.....+.X.XX.+..X.....+.X.",
"..XXX.X.++X.+.XX..XXX.X.++XO+.XX..XXX.X.++X.+.XX..XXX.X.++X.+.XX",
"..X.....+X..X+X...X.....+XO$O+X...X.....+X..X+X...X.....+X..X+X.",
"....+..X+...XX......+..X+O$&$O......+..X+...XX......+..X+...XX..",
"....+..XX.X.X.......+..XOO&:$O......+..XX.X.X.......+..XX.X.X...",
"+X..X..X.+.X.X.X+X..X.OO$O:::$OX+X..X..X.+.O.X.X+X..X..X.+.X.X.X",
"+X..X...++.....X+X..XO$%%%&::%OX+X..X...++O$O..X+X..X...++.....X",
"XXX....XX..XXXXXXXX.O$%&&&&%:%$OXXX....XX.O%:OXXXXX....XX..XXXXX",
"..+X...X......XX..+O$%&&&&&&%%%O..+X...X..O&:-OX..+X...X......XX",
"..+X..X........X..+O%&&&&&&&&&%$O.+X..X...O&:-OX..+X..X........X",
"X.XXX.X..X.X.XX.X.XO%%ooo%&&&&%%$OOOOOO..O&::-O.X.XXX.X..X.X.XX.",
"XXXX+..X+XXX.XXXXXO$%$* =$&&&&%%%%%%%$$OO$%:-OXXXXXX+..X+XXX.XXX",
"XXX..X..+......XXO$%&$# ;%&&&&%&&&&&&&&%$O--O..XXXX..X..+......X",
"X.XX....X.X..X.XXO O&%@@%&&&&&&&&&&&&&&&%$OO.X.XX.XX....X.X..X.X",
"X..XXX..XXX.XX..XO-::&&&&&&&%&&&&&&&&&&&&%$OXX..X..XXX..XXX.XX..",
"+..+X+X..X..+...+.O-:::&&&%%%&&&&&&&&&&&&%$O+...+..+X+X..X..+...",
"XX.+..X.....+.X.XX.OO-::---$%&&&&&&&%&&&&&%O+.X.XX.+..X.....+.X.",
"..XXX.X.++X.+.XX..XXXOOOOOO$&&&-:::-$%&&&&%O+.XX..XXX.X.++X.+.XX",
"..X.....+X..X+X...X.....+XO&&&O-----O$%%&&&$O+X...X.....+X..X+X.",
"....+..X+...XX......+..X+O%&&%OOOOOOOOOO$&&%OX......+..X+...XX..",
"....+..XX.X.X.......+..XO$&&%$O$$O.O$$$OO&&%O.......+..XX.X.X...",
"+X..X..X.+.X.X.X+X..X..XO%&&$OOOOX..OOOXO&&$OX.X+X..X..X.+.X.X.X",
"+X..X...++.....X+X..X...+OOOO..X+X..X...+OOO...X+X..X...++.....X",
"XXX....XX..XXXXXXXX....XX..XXXXXXXX....XX..XXXXXXXX....XX..XXXXX",
"..+X...X......XX..+X...X......XX..+X...X......XX..+X...X......XX",
"..+X..X........X..+X..X........X..+X..X........X..+X..X........X",
"X.XXX.X..X.X.XX.X.XXX.X..X.X.XX.X.XXX.X..X.X.XX.X.XXX.X..X.X.XX.",
"XXXX+..X+XXX.XXXXXXX+..X+XXX.XXXXXXX+..X+XXX.XXXXXXX+..X+XXX.XXX",
"XXX..X..+......XXXX..X..+......XXXX..X..+......XXXX..X..+......X",
"X.XX....X.X..X.XX.XX....X.X..X.XX.XX....X.X..X.XX.XX....X.X..X.X",
"X..XXX..XXX.XX..X..XXX..XXX.XX..X..XXX..XXX.XX..X..XXX..XXX.XX..",
"+..+X+X..X..+...+..+X+X..X..+...+..+X+X..X..+...+..+X+X..X..+...",
"XX.+..X.....+.X.XX.+..X.....+.X.XX.+..X.....+.X.XX.+..X.....+.X.",
"..XXX.X.++X.+.XX..XXX.X.++X.+.XX..XXX.X.++X.+.XX..XXX.X.++X.+.XX",
"..X.....+X..X+X...X.....+X..X+X...X.....+X..X+X...X.....+X..X+X.",
"....+..X+...XX......+..X+...XX......+..X+...XX......+..X+...XX..",
"....+..XX.X.X.......+..XX.X.X.......+..XX.X.X.......+..XX.X.X...",
"+X..X..X.+.X.X.X+X..X..X.+.X.X.X+X..X..X.+.X.X.X+X..X..X.+.X.X.X",
"+X..X...++.....X+X..X...++.....X+X..X...++.....X+X..X...++.....X",
"XXX....XX..XXXXXXXX....XX..XXXXXXXX....XX..XXXXXXXX....XX..XXXXX",
"..+X...X......XX..+X...X......XX..+X...X......XX..+X...X......XX",
"..+X..X........X..+X..X........X..+X..X........X..+X..X........X",
"X.XXX.X..X.X.XX.X.XXX.X..X.X.XX.X.XXX.X..X.X.XX.X.XXX.X..X.X.XX.",
"XXXX+..X+XXX.XXXXXXX+..X+XXX.XXXXXXX+..X+XXX.XXXXXXX+..X+XXX.XXX"
};
