/* XPM */
static char *_757c67f74bb43ddfb603a2094b53345yfnB3Q55fdkLtnc4[] = {
/* columns rows colors chars-per-pixel */
"64 64 16 1 ",
"  c #2E1E22",
". c #187454",
"X c #197E52",
"o c #424040",
"O c gray42",
"+ c #24875C",
"@ c #64648B",
"# c #928A8C",
"$ c #A0A0A0",
"% c gray71",
"& c #CBCBCB",
"* c #D9D9DD",
"= c #C3D5EF",
"- c #E9E9E9",
"; c #E6F7FF",
": c white",
/* pixels */
"XXX..X..+......XXXX..X..+......XXXX..X..+......XXXX..X..+......X",
"X.XX....X.X..X.XX.XX....X.X..X.XX.XX....X.X..X.XX.XX....X.X..X.X",
"X..XXX..XXX.XX..X..XXX..XXX.XX..X..XXX..XXX.XX..X..XXX..XXX.XX..",
"+..+X+X..X..+...+..+X+X..X..+...+..+X+X..X..+...+..+X+X..X..+...",
"XX.+..X.....+.X.XX.+..X.....+.X.XX.+..X.....+.X.XX.+..X.....+.X.",
"..XXX.X.++X.+.XX..XXX.X.++X.+.XX..XXX.X.++X.+.XX..XXX.X.++X.+.XX",
"..X.....+X..X+X...X.....+X..X+X...X.....+X..X+X...X.....+X..X+X.",
"....+..X+...XX......+..X+...XX......+..X+...XX......+..X+...XX..",
"....+..XX.X.X.......+..XX.X.X.......+..XX.X.X.......+..XX.X.X...",
"+X..X..X.+.X.X.X+X..X..X.+.X.X.X+X..X..X.+.X.X.X+X..X..X.+.X.X.X",
"+X..X...++.....X+X..X...++.....X+X..X...++.....X+X..X...++.....X",
"XXX....XX..XXXXXXXX....XX..XXXXXXXX....XX..XXXXXXXX....XX..XXXXX",
"..+X...X......XX..+X...X......XX..+X...X......XX..+X...X......XX",
"..+X..X........X..+X..X........X..+X..X........X..+X..X........X",
"X.XXX.X..X.X.XX.X.XXX.X..X.X.XX.X.XXX.X..X.X.XX.X.XXX.X..X.X.XX.",
"XXXX+..X+XXX.XXXXXXX+..X+XXX.XXXXXXX+..X+XXX.XXXXXXX+..X+XXX.XXX",
"XXX..X..+......XXXX..X..+......XXXX..X..+......XXXX..X..+......X",
"X.XX....X.X..X.XX.XX....X.X..X.XX.XX....X.X..X.XX.XX....X.X..X.X",
"X..XXX..XXX.XX..X..XXX..XXX.XX..X..XXX..XXX.XX..X..XXX..XXX.XX..",
"+..+X+X..X..+...+..+X+X..X..+...+..+X+X..X..+...+..+X+X..X..+...",
"XX.+..X.....+.X.XX.+..X.....+.X.XX.+..X.....+.X.XX.+..X.....+.X.",
"..XXX.X.++X.+.XX..XXX.X.++X.+.XX..XXO.X.++X.+.XX..XXX.X.++X.+.XX",
"..X.....+X..X+X...X.....+X..X+X...XO$O..+X..X+X...X.....+X..X+X.",
"....+..X+...XX......+..X+...XX....O$&$OX+...XX......+..X+...XX..",
"....+..XX.X.X.......+..XX.X.X.....O$:&OOX.X.X.......+..XX.X.X...",
"+X..X..X.+.X.X.X+X..X..X.+.X.X.X+O$:::O$OO.X.X.X+X..X..X.+.X.X.X",
"+X..X...++.....X+X.OOOO.++.....X+O%::&%%%$O....X+X..X...++.....X",
"XXX....XX..XXXXXXXO%&&%OX..XXXXXO$%:%&&&&%$OXXXXXXX....XX..XXXXX",
"..+X...X......XX.O-:::OX......XXO%%%&&&&&&%$O.XX..+X...X......XX",
"..+X..X........X.O-:-OX........O$%&&&&&&&&&%O..X..+X..X........X",
"X.XXX.X..X.X.XX.XO--%OX..OOOOOO$%%&&&&%ooo%%OXX.X.XXX.X..X.X.XX.",
"XXXX+..X+XXX.XXXXXO-$%OOO$$%%%%%%%&&&&$= *$%$OXXXXXX+..X+XXX.XXX",
"XXX..X..+......XXXO-$$O$%&&&&&&&&%&&&&%; #$&%$OXXXX..X..+......X",
"X.XX....X.X..X.XX.XO-O$%&&&&&&&&&&&&&&&%@@%&O OXX.XX....X.X..X.X",
"X..XXX..XXX.XX..X..XO$%&&&&&&&&&&&&%&&&&&&&::-O.X..XXX..XXX.XX..",
"+..+X+X..X..+...+..+O$%&&&&&%&&&&&&%%%&&&:::-O..+..+X+X..X..+...",
"XX.+..X.....+.X.XX.+O$%&&&&&$%&&&&&%$---::-OO.X.XX.+..X.....+.X.",
"..XXX.X.++X.+.XX..XXXO$&&&&%O-::$&&%$OOOOOO.+.XX..XXX.X.++X.+.XX",
"..X.....+X..X+X...X..OO%&&%O---O%&&$O$O.+X..X+X...X.....+X..X+X.",
"....+..X+...XX......O$O$%&&$OOO$&&%O$$$O+...XX......+..X+...XX..",
"....+..XX.X.X.......O$$O$&&&O.O&&&O.O$$OX.X.X.......+..XX.X.X...",
"+X..X..X.+.X.X.X+X..XOOOO%&&OXO%&&O.XOOX.+.X.X.X+X..X..X.+.X.X.X",
"+X..X...++.....X+X..X...+OOO...OOO..X...++.....X+X..X...++.....X",
"XXX....XX..XXXXXXXX....XX..XXXXXXXX....XX..XXXXXXXX....XX..XXXXX",
"..+X...X......XX..+X...X......XX..+X...X......XX..+X...X......XX",
"..+X..X........X..+X..X........X..+X..X........X..+X..X........X",
"X.XXX.X..X.X.XX.X.XXX.X..X.X.XX.X.XXX.X..X.X.XX.X.XXX.X..X.X.XX.",
"XXXX+..X+XXX.XXXXXXX+..X+XXX.XXXXXXX+..X+XXX.XXXXXXX+..X+XXX.XXX",
"XXX..X..+......XXXX..X..+......XXXX..X..+......XXXX..X..+......X",
"X.XX....X.X..X.XX.XX....X.X..X.XX.XX....X.X..X.XX.XX....X.X..X.X",
"X..XXX..XXX.XX..X..XXX..XXX.XX..X..XXX..XXX.XX..X..XXX..XXX.XX..",
"+..+X+X..X..+...+..+X+X..X..+...+..+X+X..X..+...+..+X+X..X..+...",
"XX.+..X.....+.X.XX.+..X.....+.X.XX.+..X.....+.X.XX.+..X.....+.X.",
"..XXX.X.++X.+.XX..XXX.X.++X.+.XX..XXX.X.++X.+.XX..XXX.X.++X.+.XX",
"..X.....+X..X+X...X.....+X..X+X...X.....+X..X+X...X.....+X..X+X.",
"....+..X+...XX......+..X+...XX......+..X+...XX......+..X+...XX..",
"....+..XX.X.X.......+..XX.X.X.......+..XX.X.X.......+..XX.X.X...",
"+X..X..X.+.X.X.X+X..X..X.+.X.X.X+X..X..X.+.X.X.X+X..X..X.+.X.X.X",
"+X..X...++.....X+X..X...++.....X+X..X...++.....X+X..X...++.....X",
"XXX....XX..XXXXXXXX....XX..XXXXXXXX....XX..XXXXXXXX....XX..XXXXX",
"..+X...X......XX..+X...X......XX..+X...X......XX..+X...X......XX",
"..+X..X........X..+X..X........X..+X..X........X..+X..X........X",
"X.XXX.X..X.X.XX.X.XXX.X..X.X.XX.X.XXX.X..X.X.XX.X.XXX.X..X.X.XX.",
"XXXX+..X+XXX.XXXXXXX+..X+XXX.XXXXXXX+..X+XXX.XXXXXXX+..X+XXX.XXX"
};
