/* XPM */
static char *_d126f78340546798d93beab2505827bJUgsjqzL2WF6fHqz[] = {
/* columns rows colors chars-per-pixel */
"64 64 9 1 ",
"  c #187454",
". c #197E52",
"X c gray42",
"o c #24875C",
"O c #A0A0A0",
"+ c gray71",
"@ c #CBCBCB",
"# c #E9E9E9",
"$ c white",
/* pixels */
"...  .  o      ....  .  o      ....  .  o      ....  .  o      .",
". ..    . .  . .. ..    . .  . .. ..    . .  . .. ..    . .  . .",
".  ...  ... ..  .  ...  ... ..  .  ...  ... ..  .  ...  ... ..  ",
"o  o.o.  .  o   o  o.o.  .  o   o  o.o.  .  o   o  o.o.  .  o   ",
".. o  .     o . .. o  .     o . .. o  .     o . .. o  .     o . ",
"  ... . oo. o ..  ... . oo. o ..  ... . oo. o ..  ... . oo. o ..",
"  .     o.  .o.   .     o.  .o.   .     o.  .o.   .     o.  .o. ",
"    o  .o   ..      o  .o   ..      o  .o   ..      o  .o   ..  ",
"    o  .. . .       o  .. . .       o  .. . .       o  .. . .   ",
"o.  .  . o . . .o.  .  . o . . .o.  .  . o . . .o.  .  . o . . .",
"o.  .   oo     .o.  .   oo     .o.  .   oo     .o.  .   oo     .",
"...    ..  ........    ..  ........    ..  ........    ..  .....",
"  o.   .      ..  o.   .      ..  o.   .      ..  o.   .      ..",
"  o.  .        .  o.  .        .  o.  .        .  o.  .        .",
". ... .  . . .. . ... .  . . .. . ... .  . . .. . ... .  . . .. ",
"....o  .o... .......o  .o... .......o  .o... .......o  .o... ...",
"...  .  o      ....  .  o      ....  .  o      ....  .  o      .",
". ..    . .  . .. ..    . .  . .. ..    . .  . .. ..    . .  . .",
".  ...  ... ..  .  ...  ..X ..  .  .X.  ... ..  .  ...  ... ..  ",
"o  o.o.  .  o   o  o.o.  XOXo   o  XOX.  .  o   o  o.o.  .  o   ",
".. o  .     o . .. o  .  X+OX . ..XO+X.     o . .. o  .     o . ",
"  ... . oo. o ..  ... . oX++OXXXXXO++X. oo. o ..  ... . oo. o ..",
"  .     o.  .o.   .     XO+@+XOOOX+@+OX o.  .o.   .     o.  .o. ",
"    o  .o   ..      o  .XO+@@+++++@@+OX.o   ..      o  .o   ..  ",
"    o  .. . .       o  .XO@@@@@@@@@@@OX.. . .       o  .. . .   ",
"o.  .  . o . . .o.  .  XO+@@@@@@@@@@@+OX o . . .o.  .  . o . . .",
"o.  .   oo     .o.  .  XO+@@@@@@@@@@@+OXoo     .o.  .   oo     .",
"...    ..  ........    XOO+@@@@@@@@@+OOX.  ........    ..  .....",
"  o.   .      ..  o.   XOOO+++@@@+++OOOX      ..  o.   .      ..",
"  o.  .        .  o.  . XOXO+@@@@@+OXOX        .  o.  .        .",
". ... .  . . .. . ... . XXO+@@@@@@@+OXX  . . .. . ... .  . . .. ",
"....o  .o... .......o  .XO++@@@@@@@++OX.o... .......o  .o... ...",
"...  .  o      ....  .  XOOO+@@@XXXOOOX o      ....  .  o      .",
". ..    . .  . .. ..    .XO+@@@X+#$XOXX . .  . .. ..    . .  . .",
".  ...  ... ..  .  ...  XO+@@@X+$$$$XOX ... ..  .  ...  ... ..  ",
"o  o.o.  .  o   o  o.o. XO@@@X+$$#XX@OX  .  o   o  o.o.  .  o   ",
".. o  .     o . .. o  . X+@@@X$$#X@@@+X     o . .. o  .     o . ",
"  ... . oo. o ..  ... . X+@@@X#$O@@@++X oo. o ..  ... . oo. o ..",
"  .     o.  .o.   .     X++@@$O#$$@@+OX o.  .o.   .     o.  .o. ",
"    o  .o   ..      o  .XO++#$$$$$#+OOX.o   ..      o  .o   ..  ",
"    o  .. . .       o  .XO@+X#####XOOX .. . .       o  .. . .   ",
"o.  .  . o . . .o.  .  . X@@OXXXXXOOOX . o . . .o.  .  . o . . .",
"o.  .   oo     .o.  .   oX@@@OX.oXOOOX  oo     .o.  .   oo     .",
"...    ..  ........    .. O@@+X...XXX  ..  ........    ..  .....",
"  o.   .      ..  o.   .  X+OOX.  o.   .      ..  o.   .      ..",
"  o.  .        .  o.  .        .  o.  .        .  o.  .        .",
". ... .  . . .. . ... .  . . .. . ... .  . . .. . ... .  . . .. ",
"....o  .o... .......o  .o... .......o  .o... .......o  .o... ...",
"...  .  o      ....  .  o      ....  .  o      ....  .  o      .",
". ..    . .  . .. ..    . .  . .. ..    . .  . .. ..    . .  . .",
".  ...  ... ..  .  ...  ... ..  .  ...  ... ..  .  ...  ... ..  ",
"o  o.o.  .  o   o  o.o.  .  o   o  o.o.  .  o   o  o.o.  .  o   ",
".. o  .     o . .. o  .     o . .. o  .     o . .. o  .     o . ",
"  ... . oo. o ..  ... . oo. o ..  ... . oo. o ..  ... . oo. o ..",
"  .     o.  .o.   .     o.  .o.   .     o.  .o.   .     o.  .o. ",
"    o  .o   ..      o  .o   ..      o  .o   ..      o  .o   ..  ",
"    o  .. . .       o  .. . .       o  .. . .       o  .. . .   ",
"o.  .  . o . . .o.  .  . o . . .o.  .  . o . . .o.  .  . o . . .",
"o.  .   oo     .o.  .   oo     .o.  .   oo     .o.  .   oo     .",
"...    ..  ........    ..  ........    ..  ........    ..  .....",
"  o.   .      ..  o.   .      ..  o.   .      ..  o.   .      ..",
"  o.  .        .  o.  .        .  o.  .        .  o.  .        .",
". ... .  . . .. . ... .  . . .. . ... .  . . .. . ... .  . . .. ",
"....o  .o... .......o  .o... .......o  .o... .......o  .o... ..."
};
