/* XPM */
static char *d6014c9af9754943d2dbc63cd4057482xSJPSWsjsEsUXcrX[] = {
/* columns rows colors chars-per-pixel */
"64 64 8 1 ",
"  c #3E3F50",
". c #1A5F5A",
"X c #187454",
"o c #197E52",
"O c #5B5F73",
"+ c #24875C",
"@ c #797E91",
"# c #A29DB8",
/* pixels */
"oooXXoXX+XXXXXXooooXXoXX+XXXXXXooooXXoXX+XXXXXXooooXXoXX+XXXXXXo",
"oXooXXXXoXoXXoXooXooXXXXoXoXXoXooXooXXXXoXoXXoXooXooXXXXoXoXXoXo",
"oXXoooXXoooXooXXoXXoooXXoooXooXXoXXoooXXoooXooXXoXXoooXXoooXooXX",
"+XX+o+oXXoXX+XXX+XX+o+oXXoXX+XXX+XX+o+oXXoXX+XXX+XX+o+oXXoXX+XXX",
"ooX+XXoXXXXX+XoXooX+XXoXXXXX+XoXooX+XXoXXXXX+XoXooX+XXoXXXXX+XoX",
"XXoooXoX++oX+XooXXoooXoX++oX+XooXXoooXoX++oX+XooXXoooXoX++oX+Xoo",
"XXoXXXXX+oXXo+oXXXoXXXXX+oXXo+oXXXoXXXXX+oXXo+oXXXoXXXXX+oXXo+oX",
"XXXX+XXo+XXXooXXXXXX+XXo+XXXooXXXXXX+XXo+XXXooXXXXXX+XXo+XXXooXX",
"XXXX+XXooXoXoXXXXXXX+XXooXoXoXXXXXXX+XXooXoXoXXXXXXX+XXooXoXoXXX",
"+oXXoXXoX+XoXoXo+oXXoXXoX+XoXoXo+oXXoXXoX+XoXoXo+oXXoXXoX+XoXoXo",
"+oXXoXXX++XXXXXo+oXXoXXX++XXXXXo+oXXoXXX++XXXXXo+oXXoXXX++XXXXXo",
"oooXXXXooXXooooooooXXXXooXXooooooooXXXXooXXooooooooXXXXooXXooooo",
"XX+oXXXoXXXXXXooXX+oXXXoXXXXXXooXX+oXXXoXXXXXXooXX+oXXXoXXXXXXoo",
"XX+oXXoXXXXXXXXoXX+oXXoXXXXXXXXoXX+oXXoXXXXXXXXoXX+oXXoXXXXXXXXo",
"oXoooXoXXoXoXooXoXoooXoXXoXoXooXoXoooXoXXoXoXooXoXoooXoXXoXoXooX",
"oooo+XXo+oooXooooooo+XXo+oooXooooooo+XXo+oooXooooooo+XXo+oooXooo",
"oooXXoXX+XXXXXXooooXXoXX+XXXXXXooooXXoXX+XXXXXXooooXXoXX+XXXXXXo",
"oXooXXXXoXoXXoXooXooXXXXoXoXXoXooXooXXXXoXoXXoXooXooXXXXoXoXXoXo",
"oXXoooXXoooXooXXoXXoooXXoooXooXXoXXoooXXoooXooXXoXXoooXXoooXooXX",
"+XX+o+oXXoXX+XXX+XX+o+oXXoX      XX+o+oXXoXX+XXX+XX+o+oXXoXX+XXX",
"ooX+XXoXXXXX+XoXooX+XXoXX  @@@@@@  +XXoXXXXX+XoXooX+XXoXXXXX+XoX",
"XXoooXoX++oX+XooXXoooXoX+ @@@@@@@@  oXoX++oX+XooXXoooXoX++oX+Xoo",
"XXoXXXXX+oXXo+oXXXoXXXXX @@@@@@@@#OO XXX+oXXo+oXXXoXXXXX+oXXo+oX",
"XXXX+XXo+XXXooXXXXXX+XX  #@@@@@@#OO   Xo+.X.ooXXXXXX+XXo+XXXooXX",
"XXXX+XXooXoXoXXXXXXX+XX OO######OOOOO ......oXXXXXXX+XXooXoXoXXX",
"+oXXoXXoX+XoXoXo+oX.oX @@@OOOOOOOOOOO      .Xo.o+oXXoXXoX+XoXoXo",
"+oXXoXXX++XXXXXo+oX... @@@@@@@@@@OOOO@   @O....o+oXXoXXX++XXXXXo",
"oooXXXXooXXoooooooo... @@@@@@@@@@OO@@  O @@ ...ooooXXXXooXXooooo",
"XX+oXXXoXXXXXXooXX...  @@@@@@@@@#@@@   O OO X...XX+oXXXoXXXXXXoo",
"XX+oXXoXXXXXXXXoXX.o  #@@@@#####O     OO     .o.XX+oXXoXXXXXXXXo",
"oXoooXoXXoXoXooX.X.o   ####OOOO O    @OO  O  .o.oXoooXoXXoXoXooX",
"oooo+XXo+oooXooo....     OOOOO O    O@@@  O   ..oooo+XXo+oooXooo",
"oooXXoXX+XXXXXXoo...     OOOO O   OO O   OO   .XoooXXoXX+XXXXXXo",
"oXooXXXXoXoXXoXoo.o..    OOOO   @@OOOOO  OO X .XoXooXXXXoXoXXoXo",
"oXXoooXXoooXooXXo.X.           @@@@OOOO  O  X...oXXoooXXoooXooXX",
"+XX+o+oXXoXX+XXX+X..oOOOOOO@@@@@@@@@@@O O   ....+XX+o+oXXoXX+XXX",
"ooX+XXoXXXXX+XoXoo..oOOOOO@@@@@@@@####@O  X ....ooX+XXoXXXXX+XoX",
"XXoooXoX++oX+XooXX... o@@##@@@@@@###@@@   X ...oXXoooXoX++oX+Xoo",
"XXoXXXXX+oXXo+oXXX... o OO########   o  o  ..+oXXXoXXXXX+oXXo+oX",
"XXXX+XXo+XXXooXXXXXX..oo OXXOOOOOO o o  o...ooXXXXXX+XXo+XXXooXX",
"XXXX+XXooXoXoXXXXXXX+X... X  OOOO   ......oXoXXXXXXX+XXooXoXoXXX",
"+oXXoXXoX+XoXoXo+oXXoXXo..... X o........+XoXoXo+oXXoXXoX+XoXoXo",
"+oXXoXXX++XXXXXo+oXXoXXX++......o.....o.++XXXXXo+oXXoXXX++XXXXXo",
"oooXXXXooXXooooooooXXXXooXXoo.....o..XXooXXooooooooXXXXooXXooooo",
"XX+oXXXoXXXXXXooXX+oXXXoXXXXXXooXX+oXXXoXXXXXXooXX+oXXXoXXXXXXoo",
"XX+oXXoXXXXXXXXoXX+oXXoXXXXXXXXoXX+oXXoXXXXXXXXoXX+oXXoXXXXXXXXo",
"oXoooXoXXoXoXooXoXoooXoXXoXoXooXoXoooXoXXoXoXooXoXoooXoXXoXoXooX",
"oooo+XXo+oooXooooooo+XXo+oooXooooooo+XXo+oooXooooooo+XXo+oooXooo",
"oooXXoXX+XXXXXXooooXXoXX+XXXXXXooooXXoXX+XXXXXXooooXXoXX+XXXXXXo",
"oXooXXXXoXoXXoXooXooXXXXoXoXXoXooXooXXXXoXoXXoXooXooXXXXoXoXXoXo",
"oXXoooXXoooXooXXoXXoooXXoooXooXXoXXoooXXoooXooXXoXXoooXXoooXooXX",
"+XX+o+oXXoXX+XXX+XX+o+oXXoXX+XXX+XX+o+oXXoXX+XXX+XX+o+oXXoXX+XXX",
"ooX+XXoXXXXX+XoXooX+XXoXXXXX+XoXooX+XXoXXXXX+XoXooX+XXoXXXXX+XoX",
"XXoooXoX++oX+XooXXoooXoX++oX+XooXXoooXoX++oX+XooXXoooXoX++oX+Xoo",
"XXoXXXXX+oXXo+oXXXoXXXXX+oXXo+oXXXoXXXXX+oXXo+oXXXoXXXXX+oXXo+oX",
"XXXX+XXo+XXXooXXXXXX+XXo+XXXooXXXXXX+XXo+XXXooXXXXXX+XXo+XXXooXX",
"XXXX+XXooXoXoXXXXXXX+XXooXoXoXXXXXXX+XXooXoXoXXXXXXX+XXooXoXoXXX",
"+oXXoXXoX+XoXoXo+oXXoXXoX+XoXoXo+oXXoXXoX+XoXoXo+oXXoXXoX+XoXoXo",
"+oXXoXXX++XXXXXo+oXXoXXX++XXXXXo+oXXoXXX++XXXXXo+oXXoXXX++XXXXXo",
"oooXXXXooXXooooooooXXXXooXXooooooooXXXXooXXooooooooXXXXooXXooooo",
"XX+oXXXoXXXXXXooXX+oXXXoXXXXXXooXX+oXXXoXXXXXXooXX+oXXXoXXXXXXoo",
"XX+oXXoXXXXXXXXoXX+oXXoXXXXXXXXoXX+oXXoXXXXXXXXoXX+oXXoXXXXXXXXo",
"oXoooXoXXoXoXooXoXoooXoXXoXoXooXoXoooXoXXoXoXooXoXoooXoXXoXoXooX",
"oooo+XXo+oooXooooooo+XXo+oooXooooooo+XXo+oooXooooooo+XXo+oooXooo"
};
