/* XPM */
static char *a1bb137cccff4158ca93e0a0c189b627myEqCGKYtiAB5wmf[] = {
/* columns rows colors chars-per-pixel */
"64 64 11 1 ",
"  c #4B3037",
". c #185D3C",
"X c #544538",
"o c #66533F",
"O c #154E43",
"+ c #1A5F5A",
"@ c #1E7B47",
"# c #187454",
"$ c #197E52",
"% c #2D9C45",
"& c #24875C",
/* pixels */
"$$$##$##&######$$$$##$##&######$$$$##$##&######$$$$##$##&######$",
"$#$$####$#$##$#$$#$$####$#$##$#$$#$$####$#$##$#$$#$$####$#$##$#$",
"$##$$$##$$$#$$##$##$$$##$$$#$$##$##$$$##$$$#$$##$##$$$##$$$#$$##",
"&##&$&$##$##&###&##&$&$##$##&###&##&$&$##$##&###&##&$&$##$##&###",
"$$#&##$#####&#$#$$#&##$#####&#$#$$#&##$#####&#$#$$#&##$#####&#$#",
"##$$$#$#&&$#&#$$##$$$#$#&&$#&#$$##$$$#$#&&$#&#$$##$$$#$#&&$#&#$$",
"##$#####&$##$&$###$#####&$##$&$###$#####&$##$&$###$#####&$##$&$#",
"####&##$&###$$######&##$&###$$######&##$&###$$######&##$&###$$##",
"####&##$$#$#$#######&##$$#$#$###.###&##$$#$#$#######&##$$#$#$###",
"&$##$##$#&#$#$#$&$##$##$#&#$#$#$%.##$##$#&#$#$#$&$##$##$#&#$#$#$",
"&$##$###&&#####$&$##$###&&#####.%.O.$###&&#####$&$##$###&&#####$",
"$$$####$$##$$$$$$$$####$$##$$$.%%.OO.##$$##$$$$$$$$####$$##$$$$$",
"##&$###$######$$##&$###$####..%%%@..OO#$######$$##&$###$######$$",
"##&$##$########$##&$##$#####.%%%%@...OO########$##&$##$########$",
"$#$$$#$##$#$#$$#$#$$$#$##$#.%%%%%@@...O##$#$#$$#$#$$$#$##$#$#$$#",
"$$$$&##$&$$$#$$$$$$$&##$&$.%%%%%%%%%.@OO&$$$#$$$$$$$&##$&$$$#$$$",
"$$$##$##&######$$$$##$##&@%%%%%%%%@@@..O&######$$$$##$##&######$",
"$#$$####$#$##$#$$#$$####@%%%@%%%@@@@....O#$##$#$$#$$####$#$##$#$",
"$##$$$##$$$#$$##$##$$$#.%%%@@@%%%%@@@@@.OO$#$$##$##$$$##$$$#$$##",
"&##&$&$##$##&###&##&$..%.%@@@@@@%@@@@....OO#&###&##&$&$##$##&###",
"$$#&##$#####&#$#$$#&....%%@@@@@%%%%@.@@@..OO&#$#$$#&##$#####&#$#",
"##$$$#$#&&$#&#$$##$$$#.%%@OOO.@@%@@......OOOOO$$##$$$#$#&&$#&#$$",
"##$#####&$##$&$###$#..%%%@@..%%%%%%@@..@@.OO..O###$#####&$##$&$#",
"####&##$&###$$#####.@%%@@@@...@@%%........OO.OOOO###&##$&###$$##",
"####&##$$#$#$#####.%%@@@..@@O..%%%@....@...OOOOO####&##$$#$#$###",
"&$##$##$#&#$#$#$..@@@@....@.OOO.%OO..OO....OOO#$&$##$##$#&#$#$#$",
"&$##$###&&#####$&..@...@@...OOOOOOOO@@OOO.OOO.OO&$##$###&&#####$",
"$$$####$$##$$$$$$$$...@@@@.........OOO...OOO.@.O$$$####$$##$$$$$",
"##&$###$######$$##..@@%@@..%..@@@@@@@O.@@OOO.@.OOO&$###$######$$",
"##&$##$########$#..%@%%@.@@%....@%@..OO.@@O..O...OO$##$########$",
"$#$$$#$##$#$#$$#$.@%%%@..%%%@..%%%%@OOO@@@@OOOOOO.OO$#$##$#$#$$#",
"$$$$&##$&$$$#$$$.@%%%@..%%%.....%%%..OO.@.OOOOOOOOOOO##$&$$$#$$$",
"$$$##$##&######.@%%@%..%%%@..OO@@%.OOOO@@@@OO..OOOOO#$##&######$",
"$#$$####$#$##$.@%@%@%.@%%%...O.O%%@..OO.@OOO....O#$$####$#$##$#$",
"$##$$$##$$$#$.@%%@@...%%@%..@.O@@%@.OOOOOOO.....OO#$$$##$$$#$$##",
"&##&$&$##$#.%%@O@....@%@@..@@..O.@...OOOOO...@@@.O#&$&$##$##&###",
"$$#&##$#####O...O.@%..%@.%@%@..OO@OOOOOOOOOOOO..@O#&##$#####&#$#",
"##$$$#$#&&$#&#$$.@%%@..@.%%%%@.OOOOOOO...@OOO..@@OOO$#$#&&$#&#$$",
"##$#####&$##$&$OO%@%....%%@@%...@@@@...@@@O.OO.O...OO###&$##$&$#",
"####&##$&###$$O.%%.@...@@..@@..@@%@@@@.@@@..OOOOOOO.OO#$&###$$##",
"####&##$$#$#$#O%%@....@..@..@@@%%%%@@@...@@.OOOO#OOO&##$$#$#$###",
"&$##$##$#&#$#O.@.@....%.%@...@@@@%@.....@@@..OOO&$##$##$#&#$#$#$",
"&$##$###&&##OO@@...O..@%%%@.....%%%....OO..@.OOOO$##$###&&#####$",
"$$$####$$##OO..@..OOO%%%@......@@%@...OOO@@..OOOOO$####$$##$$$$$",
"##&$###$######OOOO&$#O@%%@.OOO...@@.OOOOOOO..OOOOOOO###$######$$",
"##&$##$#######OO##&$O%@@..OOOOO.@@@.OOOOOOOOOOOOOOO$##$########$",
"$#$$$#$##$#$#$$#$#$O.@..OOOOOOOO.@..OOOOOOOOOOOO$#$$$#$##$#$#$$#",
"$$$$&##$&$$$#$$$$$OO..OOOOOOOO++O..O +OOOO++OOO$$$$$&##$&$$$#$$$",
"$$$##$##&######$$$$#OOOO++++O+++XO.  +++O++++++$$$$##$##&######$",
"$#$$####$#$##$#$$#$$##++++#++++XX     ++++#++++++#$$####$#$##$#$",
"$##$$$##$$$#$$##$##$$$++++#+++XXX      +++#++##++##$$$##$$$#$$##",
"&##&$&$##$##&###&##&$+#++++++XXX  o     ++#+++#++##&$&$##$##&###",
"$$#&##$#####&#$#$$#&#+#++#++++++ oo  +++++##+++++$#&##$#####&#$#",
"##$$$#$#&&$#&#$$##$$$+#++#++++++XXo  ++++#++#+++##$$$#$#&&$#&#$$",
"##$#####&$##$&$###$####++++#++#++XX +++#+#++#+$###$#####&$##$&$#",
"####&##$&###$$######&##$&+++++#+++X++++#++++$$######&##$&###$$##",
"####&##$$#$#$#######&##$$#$#$#######&##$$#$#$#######&##$$#$#$###",
"&$##$##$#&#$#$#$&$##$##$#&#$#$#$&$##$##$#&#$#$#$&$##$##$#&#$#$#$",
"&$##$###&&#####$&$##$###&&#####$&$##$###&&#####$&$##$###&&#####$",
"$$$####$$##$$$$$$$$####$$##$$$$$$$$####$$##$$$$$$$$####$$##$$$$$",
"##&$###$######$$##&$###$######$$##&$###$######$$##&$###$######$$",
"##&$##$########$##&$##$########$##&$##$########$##&$##$########$",
"$#$$$#$##$#$#$$#$#$$$#$##$#$#$$#$#$$$#$##$#$#$$#$#$$$#$##$#$#$$#",
"$$$$&##$&$$$#$$$$$$$&##$&$$$#$$$$$$$&##$&$$$#$$$$$$$&##$&$$$#$$$"
};
